# xmcd
#
# Track frame offsets: 
#        150
#        13040
#        23676
#        36055
#        47913
#        59207
#        68464
#        90281
#        100311
#        115790
#        133724
#        148394
#        157651
#        169515
#        179294
#        190487
#        200606
#        212956
#        225057
#        234662
#
# Disc length: 3264 seconds
#
# Revision: 1
# Processed by: cddbd v1.5.2PL0 Copyright (c) Steve Scherf et al.
# Submitted via: ExactAudioCopyFreeDBPlugin 1.0
#
DISCID=0e0cbe14
DTITLE=Various Artist - Train Songs:  200 Great Songs About Heroes, H
DTITLE=obos and Freight Trains [Membran-The Intense Media]
DYEAR=2012
DGENRE=Trains
TTITLE0=Hank Williams - Pan American
TTITLE1=Doris Day - Choo Choo Train
TTITLE2=Ken Colyer Skiffle Group - Streamline Train
TTITLE3=Frankie Laine - Mule Train
TTITLE4=Hank Snow - Doggone That Train
TTITLE5=Johnny Burnette Rock and Roll Trio - Lonesome Train
TTITLE6=Everly Brothers - Lightnin' Express
TTITLE7=Johnny Cash - Hey Porter
TTITLE8=Glenn Miller - Chattanooga Choo Choo
TTITLE9=Marty Robbins - Big Iron
TTITLE10=Alan Lomax and The Ramblers - Railroad Man
TTITLE11=Johnny Horton - The Golden Rocket
TTITLE12=Stonewall Jackson - Smoke Along the Track
TTITLE13=Don Gibson - I'm Movin' On
TTITLE14=Lonnie Donegan Skiffle Group - Rock Island Line
TTITLE15=Hank Williams - The Log Train
TTITLE16=Ricky Nelson - Glory Train
TTITLE17=Jimmy Dale - Tennessee Ghost Train
TTITLE18=Bobby Darin - Oo Ee Train
TTITLE19=Johnny Duncan and His Blue Grass Boys - This Train
EXTD=
EXTT0=
EXTT1=
EXTT2=
EXTT3=
EXTT4=
EXTT5=
EXTT6=
EXTT7=
EXTT8=
EXTT9=
EXTT10=
EXTT11=
EXTT12=
EXTT13=
EXTT14=
EXTT15=
EXTT16=
EXTT17=
EXTT18=
EXTT19=
PLAYORDER=
